#Comment line ignore any data following # character 
#Hierarchical Translation and Rotation (.htr) file 
[Header]	
#Header keywords are followed by a single value 
FileType HTR		#Single word string
DataType HTRS		#Translation followed by rotation and scale data
FileVersion 1		#integer
NumSegments 84		#integer
NumFrames 2		#integer
DataFrameRate 30		#integer, data frame rate in this file
EulerRotationOrder ZYX
CalibrationUnits mm
RotationUnits Degrees
GlobalAxisofGravity Y
BoneLengthAxis Y
ScaleFactor 1.00
[SegmentNames&Hierarchy]
#CHILD	PARENT
MASTER GLOBAL
root MASTER
chest root
L_mid_tent01 root
R_mid_tent01 root
spine01 root
Bip01_Neck chest
L_humerus chest
R_humerus chest
weapon_bone chest
Bip01_Head Bip01_Neck
eye_left_bone Bip01_Head
eye_right_bone Bip01_Head
L_forearm L_humerus
L_front_hand L_forearm
L_weapon_bone L_forearm
L_front_hand01_01 L_front_hand
L_front_hand02_01 L_front_hand
L_front_hand03_01 L_front_hand
L_front_hand01_02 L_front_hand01_01
L_front_hand02_02 L_front_hand02_01
L_front_hand03_02 L_front_hand03_01
R_forearm R_humerus
R_front_hand R_forearm
R_weapon_bone R_forearm
R_front_hand01_01 R_front_hand
R_front_hand02_01 R_front_hand
R_front_hand03_01 R_front_hand
R_front_hand01_02 R_front_hand01_01
R_front_hand02_02 R_front_hand02_01
R_front_hand03_02 R_front_hand03_01
null_rope01_connect L_mid_tent01
Rope1_Seg01 null_rope01_connect
Rope1_Seg02 Rope1_Seg01
Rope1_Seg03 Rope1_Seg02
Rope1_Seg04 Rope1_Seg03
Rope1_Seg05 Rope1_Seg04
Rope1_Seg06 Rope1_Seg05
Rope1_Seg07 Rope1_Seg06
Rope1_Seg09 Rope1_Seg07
L_mid_hand01 Rope1_Seg09
L_mid_hand02 Rope1_Seg09
L_mid_hand03 Rope1_Seg09
null_rope02_connect R_mid_tent01
Rope2_Seg01 null_rope02_connect
Rope2_Seg02 Rope2_Seg01
Rope2_Seg03 Rope2_Seg02
Rope2_Seg04 Rope2_Seg03
Rope2_Seg05 Rope2_Seg04
Rope2_Seg06 Rope2_Seg05
Rope2_Seg07 Rope2_Seg06
Rope2_Seg09 Rope2_Seg07
R_mid_hand01 Rope2_Seg09
R_mid_hand02 Rope2_Seg09
R_mid_hand03 Rope2_Seg09
spine02 spine01
spine03 spine02
pelvis spine03
null_rope03_connect pelvis
null_rope04_connect pelvis
Rope3_Seg01 null_rope03_connect
Rope3_Seg02 Rope3_Seg01
Rope3_Seg03 Rope3_Seg02
Rope3_Seg04 Rope3_Seg03
Rope3_Seg05 Rope3_Seg04
Rope3_Seg06 Rope3_Seg05
Rope3_Seg07 Rope3_Seg06
Rope3_Seg08 Rope3_Seg07
Rope3_Seg09 Rope3_Seg08
R_rear_hand01 Rope3_Seg09
R_rear_hand02 Rope3_Seg09
R_rear_hand03 Rope3_Seg09
Rope4_Seg01 null_rope04_connect
Rope4_Seg02 Rope4_Seg01
Rope4_Seg03 Rope4_Seg02
Rope4_Seg04 Rope4_Seg03
Rope4_Seg05 Rope4_Seg04
Rope4_Seg06 Rope4_Seg05
Rope4_Seg07 Rope4_Seg06
Rope4_Seg08 Rope4_Seg07
Rope4_Seg09 Rope4_Seg08
L_rear_hand01 Rope4_Seg09
L_rear_hand02 Rope4_Seg09
L_rear_hand03 Rope4_Seg09
[BasePosition]
#SegmentName Tx, Ty, Tz, Rx, Ry, Rz, BoneLength
MASTER 0.000000 0.000000 0.000000 -90.000000 0.000000 0.000000 10.000000 
root 0.000000 0.000000 0.000000 0.000000 0.000000 0.000000 10.000000 
chest 0.000000 0.000000 0.000000 0.000000 0.000000 0.000000 10.000000 
L_mid_tent01 0.000000 0.000000 0.000000 0.000000 0.000000 0.000000 10.000000 
R_mid_tent01 0.000000 0.000000 0.000000 0.000000 0.000000 0.000000 10.000000 
spine01 0.000000 0.000000 0.000000 0.000000 0.000000 0.000000 10.000000 
Bip01_Neck 0.000000 0.000000 0.000000 0.000000 0.000000 0.000000 10.000000 
L_humerus 0.000000 0.000000 0.000000 0.000000 0.000000 0.000000 10.000000 
R_humerus 0.000000 0.000000 0.000000 0.000000 0.000000 0.000000 10.000000 
weapon_bone 0.000000 0.000000 0.000000 0.000000 0.000000 0.000000 10.000000 
Bip01_Head 0.000000 0.000000 0.000000 0.000000 0.000000 0.000000 10.000000 
eye_left_bone 0.000000 0.000000 0.000000 0.000000 0.000000 0.000000 10.000000 
eye_right_bone 0.000000 0.000000 0.000000 0.000000 0.000000 0.000000 10.000000 
L_forearm 0.000000 0.000000 0.000000 0.000000 0.000000 0.000000 10.000000 
L_front_hand 0.000000 0.000000 0.000000 0.000000 0.000000 0.000000 10.000000 
L_weapon_bone 0.000000 0.000000 0.000000 0.000000 0.000000 0.000000 10.000000 
L_front_hand01_01 0.000000 0.000000 0.000000 0.000000 0.000000 0.000000 10.000000 
L_front_hand02_01 0.000000 0.000000 0.000000 0.000000 0.000000 0.000000 10.000000 
L_front_hand03_01 0.000000 0.000000 0.000000 0.000000 0.000000 0.000000 10.000000 
L_front_hand01_02 0.000000 0.000000 0.000000 0.000000 0.000000 0.000000 10.000000 
L_front_hand02_02 0.000000 0.000000 0.000000 0.000000 0.000000 0.000000 10.000000 
L_front_hand03_02 0.000000 0.000000 0.000000 0.000000 0.000000 0.000000 10.000000 
R_forearm 0.000000 0.000000 0.000000 0.000000 0.000000 0.000000 10.000000 
R_front_hand 0.000000 0.000000 0.000000 0.000000 0.000000 0.000000 10.000000 
R_weapon_bone 0.000000 0.000000 0.000000 0.000000 0.000000 0.000000 10.000000 
R_front_hand01_01 0.000000 0.000000 0.000000 0.000000 0.000000 0.000000 10.000000 
R_front_hand02_01 0.000000 0.000000 0.000000 0.000000 0.000000 0.000000 10.000000 
R_front_hand03_01 0.000000 0.000000 0.000000 0.000000 0.000000 0.000000 10.000000 
R_front_hand01_02 0.000000 0.000000 0.000000 0.000000 0.000000 0.000000 10.000000 
R_front_hand02_02 0.000000 0.000000 0.000000 0.000000 0.000000 0.000000 10.000000 
R_front_hand03_02 0.000000 0.000000 0.000000 0.000000 0.000000 0.000000 10.000000 
null_rope01_connect 0.000000 0.000000 0.000000 0.000000 0.000000 0.000000 10.000000 
Rope1_Seg01 0.000000 0.000000 0.000000 0.000000 0.000000 0.000000 10.000000 
Rope1_Seg02 0.000000 0.000000 0.000000 0.000000 0.000000 0.000000 10.000000 
Rope1_Seg03 0.000000 0.000000 0.000000 0.000000 0.000000 0.000000 10.000000 
Rope1_Seg04 0.000000 0.000000 0.000000 0.000000 0.000000 0.000000 10.000000 
Rope1_Seg05 0.000000 0.000000 0.000000 0.000000 0.000000 0.000000 10.000000 
Rope1_Seg06 0.000000 0.000000 0.000000 0.000000 0.000000 0.000000 10.000000 
Rope1_Seg07 0.000000 0.000000 0.000000 0.000000 0.000000 0.000000 10.000000 
Rope1_Seg09 0.000000 0.000000 0.000000 0.000000 0.000000 0.000000 10.000000 
L_mid_hand01 0.000000 0.000000 0.000000 0.000000 0.000000 0.000000 10.000000 
L_mid_hand02 0.000000 0.000000 0.000000 0.000000 0.000000 0.000000 10.000000 
L_mid_hand03 0.000000 0.000000 0.000000 0.000000 0.000000 0.000000 10.000000 
null_rope02_connect 0.000000 0.000000 0.000000 0.000000 0.000000 0.000000 10.000000 
Rope2_Seg01 0.000000 0.000000 0.000000 0.000000 0.000000 0.000000 10.000000 
Rope2_Seg02 0.000000 0.000000 0.000000 0.000000 0.000000 0.000000 10.000000 
Rope2_Seg03 0.000000 0.000000 0.000000 0.000000 0.000000 0.000000 10.000000 
Rope2_Seg04 0.000000 0.000000 0.000000 0.000000 0.000000 0.000000 10.000000 
Rope2_Seg05 0.000000 0.000000 0.000000 0.000000 0.000000 0.000000 10.000000 
Rope2_Seg06 0.000000 0.000000 0.000000 0.000000 0.000000 0.000000 10.000000 
Rope2_Seg07 0.000000 0.000000 0.000000 0.000000 0.000000 0.000000 10.000000 
Rope2_Seg09 0.000000 0.000000 0.000000 0.000000 0.000000 0.000000 10.000000 
R_mid_hand01 0.000000 0.000000 0.000000 0.000000 0.000000 0.000000 10.000000 
R_mid_hand02 0.000000 0.000000 0.000000 0.000000 0.000000 0.000000 10.000000 
R_mid_hand03 0.000000 0.000000 0.000000 0.000000 0.000000 0.000000 10.000000 
spine02 0.000000 0.000000 0.000000 0.000000 0.000000 0.000000 10.000000 
spine03 0.000000 0.000000 0.000000 0.000000 0.000000 0.000000 10.000000 
pelvis 0.000000 0.000000 0.000000 0.000000 0.000000 0.000000 10.000000 
null_rope03_connect 0.000000 0.000000 0.000000 0.000000 0.000000 0.000000 10.000000 
null_rope04_connect 0.000000 0.000000 0.000000 0.000000 0.000000 0.000000 10.000000 
Rope3_Seg01 0.000000 0.000000 0.000000 0.000000 0.000000 0.000000 10.000000 
Rope3_Seg02 0.000000 0.000000 0.000000 0.000000 0.000000 0.000000 10.000000 
Rope3_Seg03 0.000000 0.000000 0.000000 0.000000 0.000000 0.000000 10.000000 
Rope3_Seg04 0.000000 0.000000 0.000000 0.000000 0.000000 0.000000 10.000000 
Rope3_Seg05 0.000000 0.000000 0.000000 0.000000 0.000000 0.000000 10.000000 
Rope3_Seg06 0.000000 0.000000 0.000000 0.000000 0.000000 0.000000 10.000000 
Rope3_Seg07 0.000000 0.000000 0.000000 0.000000 0.000000 0.000000 10.000000 
Rope3_Seg08 0.000000 0.000000 0.000000 0.000000 0.000000 0.000000 10.000000 
Rope3_Seg09 0.000000 0.000000 0.000000 0.000000 0.000000 0.000000 10.000000 
R_rear_hand01 0.000000 0.000000 0.000000 0.000000 0.000000 0.000000 10.000000 
R_rear_hand02 0.000000 0.000000 0.000000 0.000000 0.000000 0.000000 10.000000 
R_rear_hand03 0.000000 0.000000 0.000000 0.000000 0.000000 0.000000 10.000000 
Rope4_Seg01 0.000000 0.000000 0.000000 0.000000 0.000000 0.000000 10.000000 
Rope4_Seg02 0.000000 0.000000 0.000000 0.000000 0.000000 0.000000 10.000000 
Rope4_Seg03 0.000000 0.000000 0.000000 0.000000 0.000000 0.000000 10.000000 
Rope4_Seg04 0.000000 0.000000 0.000000 0.000000 0.000000 0.000000 10.000000 
Rope4_Seg05 0.000000 0.000000 0.000000 0.000000 0.000000 0.000000 10.000000 
Rope4_Seg06 0.000000 0.000000 0.000000 0.000000 0.000000 0.000000 10.000000 
Rope4_Seg07 0.000000 0.000000 0.000000 0.000000 0.000000 0.000000 10.000000 
Rope4_Seg08 0.000000 0.000000 0.000000 0.000000 0.000000 0.000000 10.000000 
Rope4_Seg09 0.000000 0.000000 0.000000 0.000000 0.000000 0.000000 10.000000 
L_rear_hand01 0.000000 0.000000 0.000000 0.000000 0.000000 0.000000 10.000000 
L_rear_hand02 0.000000 0.000000 0.000000 0.000000 0.000000 0.000000 10.000000 
L_rear_hand03 0.000000 0.000000 0.000000 0.000000 0.000000 0.000000 10.000000 
#Beginning of Data. Separated by tabs
#Fr	Tx	Ty	Tz	Rx	Ry	Rz	SF
[MASTER]
18 -1493.125610 -3271.783447 0.000000 0.000374 0.002317 -71.668266 3596.385742
19 -1538.086914 -3480.875244 0.000000 0.000404 0.002312 -70.180588 3805.549072
[root]
18 -62.821945 49.527790 1029.289917 -88.161346 -8.402577 -179.658127 1032.394043
19 -62.822029 60.505604 1038.641235 -87.544540 -8.837697 -179.775803 1042.296997
[chest]
18 -84.512650 -34.090519 0.000000 15.604433 -0.743051 156.384262 91.129311
19 -84.512650 -34.090519 0.000000 14.311140 -0.747632 156.386780 91.129311
[L_mid_tent01]
18 23.228750 24.509907 -223.761200 -6.793772 7.387676 -2.388650 226.294907
19 23.228750 24.509907 -223.761200 -5.199630 10.160717 -0.624922 226.294907
[R_mid_tent01]
18 23.228794 24.509907 226.238495 -162.470657 -15.785173 -18.485302 228.744751
19 23.228794 24.509907 226.238495 -162.875031 -17.157936 -14.825757 228.744751
[spine01]
18 -0.361383 -0.195265 0.000000 0.001815 0.001488 11.320962 0.410763
19 -0.361383 -0.195265 0.000000 0.001815 0.001488 11.320962 0.410763
[Bip01_Neck]
18 165.484543 71.581718 0.000119 175.896118 1.177290 24.871183 180.302734
19 165.484543 71.581718 0.000119 175.896118 1.177290 24.871183 180.302734
[L_humerus]
18 -13.983130 -135.272980 -120.471481 160.002640 36.837692 -108.863380 181.680161
19 -13.983130 -135.272980 -120.471481 158.388412 41.592140 -109.488846 181.680161
[R_humerus]
18 -13.983309 -135.273102 125.287651 -164.654800 -28.163481 -102.609955 184.909012
19 -13.983309 -135.273102 125.287651 -164.155106 -33.193451 -102.503723 184.909012
[weapon_bone]
18 235.964890 -300.705902 0.000000 0.000000 -89.951546 -128.212341 382.234833
19 235.964890 -300.705902 0.000000 0.000000 -89.951546 -128.212341 382.234833
[Bip01_Head]
18 201.313660 211.516769 15.929867 10.344573 4.073200 -69.112114 292.438507
19 201.313660 211.516754 15.929874 8.893163 3.884835 -68.288780 292.438507
[eye_left_bone]
18 -24.626970 125.451866 -64.772606 0.000000 -90.000000 -99.840431 143.318359
19 -24.626970 125.451866 -64.772606 0.000000 -90.000000 -99.840431 143.318359
[eye_right_bone]
18 -24.626970 125.451866 64.327362 0.000000 -89.965736 80.156380 143.117676
19 -24.626970 125.451866 64.327362 0.000000 -89.965736 80.156380 143.117676
[L_forearm]
18 322.776093 0.000000 -0.000119 0.000357 -0.002320 -107.506004 322.776093
19 322.776093 0.000000 -0.000119 0.000357 -0.002320 -107.506004 322.776093
[L_front_hand]
18 241.149185 -0.042021 -3.300071 -179.431961 -2.195943 -5.942919 241.171753
19 241.149185 -0.042021 -3.300071 -179.431961 -2.195943 -5.942918 241.171753
[L_weapon_bone]
18 156.183838 0.000000 0.000000 0.000014 0.000007 0.000001 156.183838
19 156.183838 0.000000 0.000000 0.000014 0.000007 0.000001 156.183838
[L_front_hand01_01]
18 86.095154 20.947098 -0.655860 0.139491 -0.584553 24.181786 88.609184
19 86.095154 20.947098 -0.655860 0.139491 -0.584553 24.181786 88.609184
[L_front_hand02_01]
18 86.935165 -11.437475 24.513514 119.190460 -21.905655 -12.119137 91.046425
19 86.935165 -11.437475 24.513514 119.190460 -21.905655 -12.119137 91.046425
[L_front_hand03_01]
18 86.637497 -14.123976 -20.424902 -120.437630 20.554031 -14.327168 90.126129
19 86.637497 -14.123976 -20.424902 -120.437630 20.554029 -14.327168 90.126129
[L_front_hand01_02]
18 71.020905 -0.000179 0.000030 0.000334 -0.002323 -106.379684 71.020905
19 71.020905 -0.000179 0.000030 0.000334 -0.002323 -106.379684 71.020905
[L_front_hand02_02]
18 71.020927 -0.000119 0.000060 0.000334 -0.002323 -106.379684 71.020927
19 71.020927 -0.000119 0.000060 0.000334 -0.002323 -106.379684 71.020927
[L_front_hand03_02]
18 71.020905 -0.000060 0.000060 0.000334 -0.002323 -106.379684 71.020905
19 71.020905 -0.000060 0.000060 0.000334 -0.002323 -106.379684 71.020905
[R_forearm]
18 322.776428 -0.000060 0.000030 0.196737 0.083011 -114.368637 322.776428
19 322.776428 -0.000060 0.000030 0.196737 0.083011 -114.368637 322.776428
[R_front_hand]
18 238.847015 -0.006795 2.210259 -0.341870 1.692705 -0.151779 238.857239
19 238.847015 -0.006795 2.210259 -0.341870 1.692705 -0.151779 238.857239
[R_weapon_bone]
18 155.664093 0.002503 -0.000030 0.003487 0.001180 -90.988930 155.664078
19 155.664093 0.002503 -0.000030 0.003487 0.001180 -90.988930 155.664078
[R_front_hand01_01]
18 87.624611 14.231146 22.918642 -119.218056 -22.033409 12.303375 91.683487
19 87.624611 14.231146 22.918642 -119.218056 -22.033409 12.303375 91.683487
[R_front_hand02_01]
18 89.356956 14.367283 -19.491137 120.545532 20.947184 14.823009 92.579636
19 89.356956 14.367283 -19.491137 120.545532 20.947184 14.823009 92.579636
[R_front_hand03_01]
18 87.286232 -22.307278 -0.143439 -0.231628 -0.392922 -24.567768 90.091743
19 87.286232 -22.307278 -0.143439 -0.231628 -0.392922 -24.567768 90.091743
[R_front_hand01_02]
18 71.020905 0.000060 0.000119 0.002323 -0.000334 106.381714 71.020905
19 71.020905 0.000060 0.000119 0.002323 -0.000334 106.381714 71.020905
[R_front_hand02_02]
18 71.020844 -0.000030 -0.000119 0.002323 -0.000334 106.381714 71.020836
19 71.020844 -0.000030 -0.000119 0.002323 -0.000334 106.381714 71.020836
[R_front_hand03_02]
18 71.020905 0.000000 0.000030 0.002323 -0.000334 106.381714 71.020905
19 71.020905 0.000000 0.000030 0.002323 -0.000334 106.381714 71.020905
[null_rope01_connect]
18 328.732483 0.000000 -0.000238 -108.619240 78.997833 172.178360 328.732483
19 328.732483 0.000000 -0.000238 -96.477554 80.373817 -177.506973 328.732483
[Rope1_Seg01]
18 -0.000022 0.000017 0.000086 -12.243162 7.747997 97.357452 0.000091
19 -0.000023 0.000015 0.000092 -11.290246 4.852105 101.490814 0.000096
[Rope1_Seg02]
18 139.999863 -0.000179 0.000000 9.506831 0.123448 -9.647094 139.999863
19 139.999863 -0.000179 0.000000 5.727020 0.619144 -7.867010 139.999863
[Rope1_Seg03]
18 139.999924 0.000060 -0.000060 23.016348 -1.823987 -14.269960 139.999924
19 139.999924 0.000060 -0.000060 12.718915 -0.150529 -11.564752 139.999924
[Rope1_Seg04]
18 139.999924 -0.000060 -0.000119 54.201462 -10.893865 -22.424339 139.999924
19 139.999924 -0.000060 -0.000119 34.543091 -4.063361 -17.887753 139.999924
[Rope1_Seg05]
18 139.999832 0.000119 -0.000060 -14.829513 5.944447 5.703043 139.999832
19 139.999832 0.000119 -0.000060 -4.071811 0.702629 2.174118 139.999832
[Rope1_Seg06]
18 139.999954 0.000119 -0.000060 -25.634151 12.078005 10.993160 139.999954
19 139.999954 0.000119 -0.000060 -6.456972 1.834976 2.895761 139.999954
[Rope1_Seg07]
18 139.999985 0.000060 0.000000 -6.124189 1.369580 5.086317 139.999985
19 139.999985 0.000060 0.000000 -0.863463 0.075345 0.589645 139.999985
[Rope1_Seg09]
18 121.602913 0.000119 -0.000089 -89.793175 -1.359789 0.847147 121.602913
19 121.602913 0.000119 -0.000089 -89.793175 -1.359789 0.847147 121.602913
[L_mid_hand01]
18 103.859421 1.038730 8.195221 106.855484 -31.239275 -9.461397 104.187431
19 103.859421 1.038730 8.195221 106.855484 -31.239275 -9.461397 104.187431
[L_mid_hand02]
18 105.572853 -4.139662 -10.864139 -142.331345 25.752670 -28.774628 106.211075
19 105.572853 -4.139662 -10.864139 -142.331345 25.752670 -28.774628 106.211075
[L_mid_hand03]
18 104.641464 17.579376 -3.913581 -16.122810 9.734291 34.223598 106.179977
19 104.641464 17.579376 -3.913581 -16.122810 9.734291 34.223598 106.179977
[null_rope02_connect]
18 328.732849 0.000179 -0.000119 105.653297 -48.038094 141.421143 328.732849
19 328.732849 0.000179 -0.000119 106.253067 -45.842484 144.391891 328.732849
[Rope2_Seg01]
18 -0.000132 -0.000066 -0.000153 24.631510 -49.843067 137.034409 0.000212
19 -0.000134 -0.000061 -0.000153 17.310108 -48.332676 144.181259 0.000212
[Rope2_Seg02]
18 139.999741 -0.000060 -0.000119 3.597651 3.953109 -10.723273 139.999756
19 139.999741 -0.000060 -0.000119 3.796395 6.312994 -11.704538 139.999756
[Rope2_Seg03]
18 140.000107 0.000030 0.000000 9.088890 4.897477 -16.915764 140.000107
19 140.000107 0.000030 0.000000 10.213337 7.664823 -17.205561 140.000107
[Rope2_Seg04]
18 139.999802 0.000000 -0.000060 29.906813 4.701628 -31.689373 139.999802
19 139.999802 0.000000 -0.000060 32.800758 10.404939 -27.211050 139.999802
[Rope2_Seg05]
18 139.999985 -0.000060 0.000119 18.508045 -6.802195 -14.384026 139.999985
19 139.999985 -0.000060 0.000119 17.221298 -6.151514 -8.811227 139.999985
[Rope2_Seg06]
18 139.999893 -0.000030 -0.000119 -11.826521 5.040596 10.530191 139.999893
19 139.999893 -0.000030 -0.000119 -13.149572 -3.419015 13.503527 139.999893
[Rope2_Seg07]
18 139.999893 0.000060 -0.000060 -11.971609 3.569340 12.460233 139.999893
19 139.999893 0.000060 -0.000060 -7.370299 -5.056587 11.148132 139.999893
[Rope2_Seg09]
18 121.338966 0.000089 -0.000060 33.793236 -1.359788 -0.847141 121.338966
19 121.338966 0.000089 -0.000060 33.793236 -1.359788 -0.847141 121.338966
[R_mid_hand01]
18 104.680779 11.144459 -10.335981 -41.523792 25.424656 28.595957 105.778534
19 104.680779 11.144459 -10.335981 -41.523792 25.424656 28.595957 105.778534
[R_mid_hand02]
18 104.070427 2.443552 8.231699 72.847389 -32.746803 10.013901 104.424065
19 104.070427 2.443552 8.231699 72.847389 -32.746803 10.013901 104.424065
[R_mid_hand03]
18 106.028137 -11.221827 -5.996406 -167.901306 10.259192 -37.009720 106.788818
19 106.028137 -11.221827 -5.996406 -167.901306 10.259192 -37.009720 106.788818
[spine02]
18 129.756927 0.001550 0.000119 0.001147 -1.797837 -7.854275 129.756927
19 129.756927 0.001550 0.000119 0.001147 -1.797837 -7.854275 129.756927
[spine03]
18 79.115631 0.000000 -0.000119 1.459971 -2.848092 23.765963 79.115631
19 79.115631 0.000000 -0.000119 1.459971 -2.848092 23.765959 79.115631
[pelvis]
18 169.435242 0.051022 0.000000 -0.000005 0.000003 -4.322055 169.435257
19 169.435242 0.051022 0.000000 -0.000005 0.000003 -4.322055 169.435257
[null_rope03_connect]
18 -1.257226 -2.466202 137.391083 -79.899940 66.603416 174.911865 137.418976
19 -1.257226 -2.466202 137.391083 -79.141991 65.036949 175.981216 137.418976
[null_rope04_connect]
18 -1.259640 -2.480268 -137.844437 -79.899940 66.603416 174.911865 137.872513
19 -1.259640 -2.480268 -137.844437 -79.141991 65.036949 175.981216 137.872513
[Rope3_Seg01]
18 0.000027 -0.000051 0.000086 -132.555878 -7.946801 124.452278 0.000104
19 0.000031 -0.000050 0.000092 -130.158600 -5.040358 140.639862 0.000109
[Rope3_Seg02]
18 139.999924 -0.000119 0.000060 -0.160620 3.674617 3.891524 139.999924
19 139.999924 -0.000119 0.000060 -0.910268 5.078498 4.571641 139.999924
[Rope3_Seg03]
18 139.999924 -0.000119 0.000119 -0.049150 4.350613 4.658331 139.999924
19 139.999924 -0.000119 0.000119 -0.644446 6.632884 6.224409 139.999924
[Rope3_Seg04]
18 139.999924 0.000119 0.000000 0.137965 6.457095 6.631081 139.999924
19 139.999924 0.000119 0.000000 -0.084837 9.286229 9.089696 139.999924
[Rope3_Seg05]
18 139.999924 -0.000238 0.000060 1.049404 9.191251 9.175743 139.999924
19 139.999924 -0.000238 0.000060 1.983564 14.283129 14.695374 139.999924
[Rope3_Seg06]
18 139.999893 -0.000119 -0.000060 0.265538 0.121547 1.629137 139.999893
19 139.999893 -0.000119 -0.000060 1.043172 5.317894 5.240776 139.999893
[Rope3_Seg07]
18 139.999771 0.000060 -0.000119 0.491967 -9.194192 -5.845558 139.999771
19 139.999771 0.000060 -0.000119 0.387446 -5.121570 -5.076876 139.999771
[Rope3_Seg08]
18 139.999985 -0.000060 0.000000 0.733489 -5.280430 -2.874354 139.999985
19 139.999985 -0.000060 0.000000 0.520011 -3.688673 -3.642796 139.999985
[Rope3_Seg09]
18 90.185997 -0.000179 -0.000060 89.793228 -1.359877 -0.847183 90.185997
19 90.185997 -0.000179 -0.000060 89.793228 -1.359877 -0.847183 90.185997
[R_rear_hand01]
18 103.366196 -6.073594 -10.757982 -161.551193 16.666374 -30.088671 104.101845
19 103.366196 -6.073594 -10.757982 -161.551193 16.666374 -30.088671 104.101845
[R_rear_hand02]
18 100.509819 12.039542 -7.992327 -34.280552 19.289745 28.875523 101.543350
19 100.509819 12.039542 -7.992327 -34.280552 19.289745 28.875523 101.543350
[R_rear_hand03]
18 101.539970 5.215704 5.435467 83.366440 -30.933914 7.284830 101.819031
19 101.539970 5.215704 5.435467 83.366440 -30.933914 7.284830 101.819031
[Rope4_Seg01]
18 -0.000053 0.000100 0.000000 21.237200 -12.636508 135.811523 0.000113
19 -0.000061 0.000099 0.000000 -15.453701 -8.296460 162.585861 0.000116
[Rope4_Seg02]
18 139.999985 0.000060 0.000119 14.413343 -7.211566 -24.880999 139.999985
19 139.999985 0.000060 0.000119 38.594212 8.204533 -28.514248 139.999985
[Rope4_Seg03]
18 139.999924 0.000000 -0.000238 3.553703 -7.508091 -12.153960 139.999924
19 139.999924 0.000000 -0.000238 13.559697 -10.344908 -24.223104 139.999924
[Rope4_Seg04]
18 139.999985 0.000000 0.000119 0.995736 -4.665665 -6.264097 139.999985
19 139.999985 0.000000 0.000119 3.944775 -10.164824 -14.379560 139.999985
[Rope4_Seg05]
18 139.999802 -0.000060 -0.000119 0.246150 -0.163307 -1.492341 139.999802
19 139.999802 -0.000060 -0.000119 0.505608 -2.985096 -3.950433 139.999802
[Rope4_Seg06]
18 139.999924 0.000000 0.000060 0.206695 2.854107 0.882473 139.999924
19 139.999924 0.000000 0.000060 0.134911 0.204615 -0.156365 139.999924
[Rope4_Seg07]
18 139.999802 0.000000 0.000000 0.361019 6.451929 3.034122 139.999802
19 139.999802 0.000000 0.000000 0.019689 3.361095 3.312787 139.999802
[Rope4_Seg08]
18 139.999924 0.000000 0.000119 -1.138310 4.099988 1.198214 139.999924
19 139.999924 0.000000 0.000119 -1.586330 2.250984 2.023653 139.999924
[Rope4_Seg09]
18 90.185791 0.000060 0.000060 -135.617828 2.228885 0.850567 90.185791
19 90.185791 0.000060 0.000060 -135.617828 2.228885 0.850567 90.185791
[L_rear_hand01]
18 101.696655 -8.392275 -7.654577 -34.454281 -18.946800 151.655121 102.329041
19 101.696655 -8.392275 -7.654577 -34.454281 -18.946800 151.655121 102.329041
[L_rear_hand02]
18 102.726799 -1.568258 5.773216 83.407906 30.330435 172.796509 102.900848
19 102.726799 -1.568258 5.773216 83.407906 30.330435 172.796509 102.900848
[L_rear_hand03]
18 104.552910 9.721220 -10.420293 -161.379868 -16.473232 -150.512238 105.519653
19 104.552910 9.721220 -10.420293 -161.379868 -16.473232 -150.512238 105.519653
